<?xml version="1.0" standalone="no"?>
<!DOCTYPE svg PUBLIC "-//W3C//DTD SVG 20010904//EN"
 "http://www.w3.org/TR/2001/REC-SVG-20010904/DTD/svg10.dtd">
<svg version="1.0" xmlns="http://www.w3.org/2000/svg"
 width="500.000000pt" height="300.000000pt" viewBox="0 0 500.000000 300.000000"
 preserveAspectRatio="xMidYMid meet">

<g transform="translate(0.000000,300.000000) scale(0.100000,-0.100000)"
fill="#000000" stroke="none">
<path d="M0 1500 l0 -1500 455 0 c250 0 455 2 455 5 0 3 -25 31 -55 61 -30 31
-55 60 -55 65 0 5 -4 9 -9 9 -5 0 -15 16 -21 36 -9 25 -17 35 -29 31 -11 -2
-31 15 -61 54 -25 32 -50 58 -56 59 -6 0 -17 7 -24 15 -7 8 -22 15 -34 16 -11
0 -15 3 -8 6 16 6 15 23 -2 23 -7 0 -28 18 -47 40 -19 22 -43 40 -54 40 -11 0
-15 4 -10 8 6 4 16 18 23 31 16 27 3 42 -29 34 -13 -4 -19 0 -19 10 0 21 49
42 133 58 61 12 72 11 95 -4 15 -9 44 -24 65 -34 20 -10 37 -22 37 -28 0 -6
10 -17 22 -25 49 -33 229 -210 237 -233 4 -13 37 -47 46 -47 3 0 27 -16 54
-36 35 -24 57 -50 72 -84 20 -44 25 -48 60 -52 22 -2 39 1 39 7 0 5 7 2 14 -7
7 -10 17 -18 22 -18 5 0 20 -9 34 -20 17 -13 41 -20 73 -20 53 0 61 12 20 29
-16 7 -45 27 -67 45 -31 27 -35 34 -22 39 10 4 15 3 11 -3 -9 -14 14 -12 50 5
20 9 24 14 13 14 -10 1 -18 6 -18 11 0 6 -12 10 -26 10 -14 0 -22 -4 -19 -10
3 -6 -1 -7 -9 -4 -9 3 -16 10 -16 14 0 9 156 21 312 23 60 1 108 5 108 9 0 4
37 9 83 11 74 3 71 3 -33 6 -63 1 -128 3 -145 5 -16 2 -46 4 -65 6 -73 6 108
18 277 18 95 1 177 3 183 7 5 3 32 -5 59 -18 28 -13 48 -20 45 -15 -9 15 33 8
46 -7 7 -8 19 -15 26 -15 7 0 11 -6 9 -12 -4 -9 8 -13 37 -14 47 -2 146 -44
174 -75 9 -10 44 -24 77 -31 48 -10 55 -14 36 -19 -13 -4 -40 -8 -59 -9 l-35
-2 40 -9 c22 -4 156 -8 298 -8 253 -1 257 -1 257 20 0 11 -4 29 -10 39 -8 14
-5 21 15 34 21 14 23 20 15 36 -15 29 -12 39 18 58 15 9 28 28 30 41 3 34 21
53 43 46 13 -4 19 -1 19 9 0 19 50 46 84 46 15 0 30 8 36 20 7 14 7 20 0 20
-19 0 -10 18 12 24 22 5 22 6 3 20 -20 15 -20 15 7 41 27 25 58 33 58 15 0 -5
-8 -14 -17 -19 -16 -9 -16 -10 3 -11 11 0 29 -9 41 -19 11 -11 31 -21 44 -23
16 -2 25 -11 27 -26 2 -15 16 -28 43 -40 21 -9 39 -21 39 -25 0 -14 43 -46 63
-47 21 0 23 -20 2 -20 -8 0 -15 -4 -15 -10 0 -14 7 -13 35 6 23 15 26 14 57
-7 18 -13 35 -26 38 -30 9 -11 75 -43 84 -40 9 2 33 -7 78 -30 10 -5 24 -9 31
-9 7 0 23 -9 34 -19 12 -11 24 -17 27 -14 3 3 15 -6 27 -21 11 -14 24 -24 28
-21 5 2 14 -7 21 -20 l13 -25 449 0 448 0 0 299 0 298 -25 -5 c-25 -4 -30 3
-19 33 6 14 8 14 25 -1 19 -17 19 -13 19 119 0 124 -6 157 -24 128 -12 -18
-46 1 -46 25 0 19 5 24 25 24 14 0 25 -4 25 -10 0 -5 5 -10 10 -10 6 0 10 11
10 24 0 18 -7 25 -30 30 -18 3 -30 12 -30 21 0 9 -9 15 -26 15 -14 0 -23 4
-19 10 3 6 1 10 -4 10 -6 0 -11 9 -11 21 0 11 -4 17 -10 14 -5 -3 -10 -16 -10
-28 0 -15 -3 -18 -11 -10 -8 8 -8 24 0 60 13 53 67 120 120 147 l31 17 -1 147
c0 91 -4 139 -9 127 -5 -11 -9 -29 -9 -39 -1 -10 -25 -49 -54 -85 -101 -126
-189 -272 -207 -345 -6 -22 -18 -58 -27 -78 l-16 -37 -41 16 c-49 19 -67 33
-43 33 9 0 17 5 17 10 0 6 -10 10 -21 10 -12 0 -52 8 -88 19 -36 10 -92 24
-124 32 -33 7 -70 21 -83 31 -13 11 -29 16 -35 12 -6 -3 -14 -2 -18 4 -9 14
-61 27 -61 14 0 -5 9 -12 20 -15 11 -3 20 -11 20 -17 0 -8 -8 -10 -22 -6 -13
3 -29 6 -36 6 -7 0 -11 4 -8 9 3 4 -22 11 -56 15 -71 7 -129 25 -141 43 -4 7
-14 13 -21 13 -7 0 -17 10 -23 23 -6 12 -25 52 -42 88 -17 37 -42 74 -56 83
-24 16 -61 74 -52 82 3 3 1 22 -4 42 -8 38 9 72 36 72 6 0 19 19 29 43 11 23
36 59 58 80 21 21 35 43 32 49 -4 7 -2 8 4 4 7 -4 12 -2 12 3 0 6 7 11 15 11
8 0 15 6 15 13 0 20 43 57 67 57 13 0 20 6 19 17 -1 20 22 27 43 14 12 -8 12
-12 2 -24 -7 -9 -8 -18 -3 -21 6 -3 15 1 22 9 7 8 18 15 25 15 8 0 16 6 18 13
3 6 6 2 6 -10 1 -12 -3 -25 -9 -28 -5 -3 -10 -14 -10 -23 0 -9 -11 -25 -24
-37 -49 -41 -40 -89 10 -49 10 8 13 13 7 9 -15 -7 -17 4 -5 23 5 7 15 10 23 7
10 -4 15 2 16 16 2 29 12 37 23 19 8 -13 10 -13 10 1 0 10 8 15 22 14 13 -1
30 8 39 19 13 16 20 18 31 8 11 -9 17 -9 27 1 14 13 14 12 -12 -46 -17 -36
-16 -57 2 -57 4 0 12 10 18 22 8 19 12 11 22 -52 6 -41 14 -87 17 -102 5 -20
2 -27 -12 -30 -15 -2 -11 -8 16 -24 l36 -21 -18 70 c-19 74 -22 121 -14 177 5
29 4 30 -3 10 -8 -23 -9 -23 -10 -4 -1 12 5 33 12 47 13 24 14 25 40 9 18 -11
27 -25 27 -42 0 -19 3 -21 9 -11 12 18 44 24 38 7 -8 -20 54 -13 93 10 27 17
42 19 65 13 17 -5 37 -6 45 -3 33 13 100 18 203 15 l107 -3 0 611 0 611 -2500
0 -2499 0 -1 -1500z m4030 650 c0 -5 -4 -10 -9 -10 -6 0 -13 5 -16 10 -3 6 1
10 9 10 9 0 16 -4 16 -10z m167 -256 c-3 -3 -12 -4 -19 -1 -8 3 -5 6 6 6 11 1
17 -2 13 -5z m-4095 -53 c8 -7 -7 -165 -17 -181 -3 -6 -16 -10 -27 -10 -20 0
-20 3 -13 58 5 31 7 79 6 105 -2 46 -1 48 21 42 13 -4 26 -10 30 -14z m4015 3
c-3 -3 -12 -4 -19 -1 -8 3 -5 6 6 6 11 1 17 -2 13 -5z m-1482 -128 c301 -64
371 -290 129 -414 -79 -40 -160 -54 -284 -49 -151 6 -240 37 -316 112 -60 58
-74 101 -54 168 41 140 303 231 525 183z m1168 -43 c-7 -2 -15 -21 -19 -41 -4
-20 -17 -56 -30 -80 -13 -23 -24 -55 -24 -69 0 -25 -1 -26 -16 -11 -15 15 -15
24 -5 78 19 94 40 130 76 129 17 0 25 -3 18 -6z m-2826 -19 c7 -19 -9 -95 -21
-97 -15 -3 -14 44 0 50 11 4 11 10 -2 34 -13 26 -13 29 1 29 9 0 18 -7 22 -16z
m-200 -20 c-3 -3 -12 -4 -19 -1 -8 3 -5 6 6 6 11 1 17 -2 13 -5z m1 -67 c3
-28 -9 -36 -25 -14 -8 10 -9 20 -4 43 3 17 26 -6 29 -29z m90 -34 c-5 -25 -28
-28 -28 -4 0 12 6 21 16 21 9 0 14 -7 12 -17z m2522 -38 c0 -10 10 -15 28 -15
l27 0 -25 -15 c-14 -8 -33 -18 -42 -21 -10 -3 -18 -10 -18 -15 0 -5 -11 -9
-25 -9 -35 0 -35 37 0 46 13 3 27 15 30 25 7 23 25 25 25 4z m313 -48 c3 -7
-6 -31 -19 -53 -13 -21 -24 -48 -24 -59 1 -17 3 -15 16 8 17 32 50 33 85 2 21
-19 79 -129 79 -151 0 -6 11 -21 25 -34 40 -38 27 -81 -18 -58 -22 11 -83 0
-98 -18 -9 -11 -5 -14 22 -15 19 -1 26 -3 17 -6 -10 -2 -18 -9 -18 -14 0 -14
45 -11 107 7 50 15 60 15 118 0 35 -9 88 -16 118 -16 30 0 67 -4 83 -9 16 -5
55 -17 87 -27 31 -9 57 -22 57 -28 0 -17 -139 -18 -175 -2 l-30 14 34 1 c19 1
31 4 28 7 -6 6 -158 12 -397 16 -37 0 -41 2 -20 8 l25 8 -27 1 c-14 1 -34 4
-42 7 -12 5 -15 2 -10 -11 6 -15 1 -16 -46 -11 -75 9 -117 31 -117 62 0 14 6
28 14 31 12 5 12 7 2 14 -10 6 -9 16 6 49 19 42 19 43 0 57 -18 12 -22 12 -38
-8 -13 -16 -21 -19 -29 -11 -6 6 -17 8 -24 5 -8 -3 -14 1 -14 11 0 9 -5 16
-11 16 -5 0 -8 4 -4 9 3 5 1 12 -4 15 -25 16 59 126 96 126 8 0 12 4 9 9 -3 5
1 12 10 15 22 9 26 8 18 -5 -4 -7 7 -4 24 6 17 11 28 24 25 32 -4 9 4 13 25
13 16 0 32 -6 35 -13z m-2580 -12 c7 3 25 -3 38 -14 l24 -19 -20 -37 c-11 -21
-25 -40 -32 -42 -7 -3 -13 -9 -13 -14 0 -20 -37 -48 -88 -68 -57 -23 -92 -27
-92 -11 0 6 -13 10 -30 10 -16 0 -30 1 -30 3 0 1 6 18 13 38 15 44 55 89 79
89 10 0 22 9 28 20 6 11 15 20 21 20 5 0 19 9 31 20 15 14 26 17 39 10 10 -6
24 -7 32 -5z m-1053 -135 c0 -5 -4 -10 -10 -10 -5 0 -10 5 -10 10 0 6 5 10 10
10 6 0 10 -4 10 -10z m1496 -37 l24 -26 -26 -18 c-26 -17 -78 -18 -166 -4 -36
6 -52 23 -40 42 12 18 65 31 125 32 50 1 61 -2 83 -26z m-1409 -70 c2 -6 -5
-14 -16 -18 -12 -3 -21 -11 -21 -16 0 -5 -9 -9 -20 -9 -27 0 -25 6 8 35 28 25
43 27 49 8z m2001 -80 c-10 -2 -18 -11 -18 -20 0 -11 -6 -14 -22 -8 -13 4 -31
7 -40 7 -11 -1 -15 5 -11 14 4 10 20 14 57 13 28 -1 43 -3 34 -6z m1769 -9
c-3 -3 -12 -4 -19 -1 -8 3 -5 6 6 6 11 1 17 -2 13 -5z m-807 -63 c0 -5 19 -11
43 -14 49 -5 120 -31 125 -45 3 -10 -30 -22 -65 -22 -13 0 -23 -4 -23 -10 0
-5 -7 -10 -15 -10 -9 0 -18 -7 -21 -15 -4 -8 -10 -15 -15 -15 -5 0 -33 -16
-63 -35 -30 -19 -62 -35 -71 -35 -8 0 -15 -4 -15 -9 0 -5 -26 -19 -57 -32 -32
-12 -60 -26 -63 -29 -3 -4 -18 -10 -33 -14 -15 -4 -25 -11 -22 -17 4 -5 -7
-14 -24 -20 -17 -6 -31 -15 -31 -20 0 -5 -15 -25 -34 -44 -19 -18 -46 -56 -61
-84 -16 -28 -32 -48 -36 -45 -5 3 -6 -1 -4 -8 7 -19 -68 -59 -86 -47 -8 5 -26
9 -41 9 -25 0 -28 4 -28 34 0 19 -6 37 -12 39 -8 3 -6 6 5 6 18 1 24 35 8 45
-14 9 -61 -18 -61 -35 0 -9 -9 -19 -20 -22 -14 -4 -20 -14 -20 -34 0 -18 -9
-38 -23 -52 -20 -18 -28 -20 -51 -11 -54 20 -151 4 -140 -24 6 -14 -96 -8
-115 7 -10 9 -17 7 -28 -8 -11 -14 -17 -16 -20 -7 -3 6 -18 12 -34 12 -17 0
-28 4 -25 8 3 5 -37 9 -89 9 -52 0 -93 -3 -90 -6 2 -4 -8 -6 -24 -3 -15 2 -31
13 -37 25 -5 13 -16 21 -27 19 -9 -2 -17 2 -17 8 0 5 -9 10 -20 10 -11 0 -20
-4 -20 -10 0 -5 -8 -10 -18 -10 -10 0 -27 -7 -38 -15 -24 -18 -44 -19 -44 -2
0 7 -9 18 -20 25 -16 10 -24 10 -40 0 -11 -7 -20 -16 -20 -19 0 -4 -12 -10
-26 -13 -35 -9 -134 13 -134 30 0 8 -6 11 -15 8 -8 -4 -15 -12 -15 -20 0 -10
-12 -14 -37 -14 -28 0 -34 3 -23 10 12 7 8 10 -15 10 l-30 0 3 84 c2 46 -4
135 -12 197 -21 148 -21 159 4 159 10 0 23 6 27 14 5 10 28 16 70 17 54 2 63
5 74 27 12 22 18 24 67 20 30 -3 57 -9 60 -15 4 -6 24 -16 45 -24 20 -7 37
-17 37 -22 0 -5 10 -22 21 -39 25 -35 35 -26 43 35 2 20 7 40 10 45 3 5 47 12
97 15 59 5 96 12 103 21 6 7 22 16 35 19 18 4 24 1 28 -14 5 -16 13 -20 41
-17 22 2 37 -2 40 -10 2 -6 10 -12 18 -12 8 0 14 -4 14 -10 0 -5 7 -10 15 -10
8 0 15 -4 15 -10 0 -5 18 -10 41 -10 32 0 40 -3 36 -14 -4 -10 -1 -13 9 -9 9
3 20 16 24 29 5 13 20 26 35 29 14 3 36 7 50 10 14 3 24 9 21 13 -2 4 43 7 99
7 95 0 106 -2 125 -22 22 -24 40 -30 40 -13 0 18 18 11 25 -10 8 -26 30 -25
49 2 16 22 16 22 16 2 0 -29 11 -37 25 -17 11 14 13 12 23 -15 10 -30 32 -44
32 -22 0 6 7 10 15 10 8 0 15 -9 15 -20 0 -11 6 -20 13 -20 7 0 18 9 25 20 7
11 18 20 26 20 8 0 17 7 20 16 3 8 11 12 17 9 6 -4 8 -13 5 -21 -3 -7 -1 -16
4 -19 6 -4 10 -1 10 5 0 16 39 70 51 70 5 0 9 -6 9 -14 0 -8 14 -22 32 -30 38
-20 38 -20 38 -1 0 8 -7 15 -16 15 -28 0 -10 34 21 41 17 4 22 7 11 8 -15 1
-16 4 -6 15 6 8 17 13 24 10 7 -3 18 1 24 8 13 16 132 24 132 9z m-1220 -17
c0 -8 -4 -12 -10 -9 -5 3 -10 10 -10 16 0 5 5 9 10 9 6 0 10 -7 10 -16z m2477
-2 c43 -7 45 -8 28 -22 -11 -9 -16 -10 -11 -2 5 8 -1 12 -21 12 -16 0 -38 7
-49 16 -10 8 -13 12 -6 9 7 -4 34 -10 59 -13z m-4007 -57 c0 -15 -67 -105 -78
-105 -8 0 3 23 25 55 33 48 53 67 53 50z m3766 -35 l27 -11 -23 -24 c-18 -19
-34 -25 -67 -25 -30 0 -43 4 -43 14 0 8 -3 16 -7 19 -10 5 5 2 35 -7 13 -5 22
-3 22 3 0 6 -5 11 -12 11 -12 0 21 29 34 30 4 0 19 -5 34 -10z m-121 -60 c-3
-5 -10 -10 -16 -10 -5 0 -9 5 -9 10 0 6 7 10 16 10 8 0 12 -4 9 -10z m294 -17
c-24 -31 -43 -41 -71 -41 -16 1 -28 3 -28 5 0 10 30 33 42 33 10 0 9 3 -2 10
-11 7 -3 10 29 10 40 0 42 -1 30 -17z m-3792 -9 c-3 -3 -12 -4 -19 -1 -8 3 -5
6 6 6 11 1 17 -2 13 -5z m532 -3 c9 -6 10 -11 2 -15 -6 -4 -11 -2 -11 3 0 6
-4 11 -10 11 -5 0 -10 -9 -10 -20 0 -13 9 -22 25 -26 36 -9 45 -31 34 -89 -5
-27 -6 -57 -3 -67 3 -11 3 -36 -1 -58 -5 -33 -11 -40 -36 -45 -16 -4 -27 -10
-24 -14 2 -4 -8 -17 -23 -27 -23 -17 -35 -19 -78 -11 -69 11 -115 50 -120 99
-2 31 3 43 32 72 18 18 34 40 34 48 0 10 3 9 10 -2 9 -13 10 -13 11 0 1 8 1
21 0 28 -2 13 22 42 35 42 4 0 17 10 29 23 52 53 78 64 104 48z m3101 -22 c0
-12 7 -19 20 -19 11 0 28 -7 39 -17 29 -25 3 -44 -70 -50 l-60 -6 6 36 c6 29
4 38 -10 43 -9 4 -21 2 -28 -5 -8 -8 -5 -11 13 -11 15 0 21 -3 14 -10 -10 -10
-54 -3 -54 9 1 17 37 42 80 54 26 7 50 -5 50 -24z m253 24 c4 -3 1 -13 -5 -21
-7 -8 -12 -26 -13 -39 0 -19 -9 -31 -35 -44 -19 -11 -43 -19 -54 -19 -17 0
-17 2 -3 23 9 13 24 22 38 21 14 -1 16 1 7 3 -25 6 -23 12 14 50 33 34 40 38
51 26z m-4133 -13 c0 -5 -5 -10 -11 -10 -5 0 -7 5 -4 10 3 6 8 10 11 10 2 0 4
-4 4 -10z m625 4 c14 -6 14 -8 -1 -25 -20 -22 -54 -25 -54 -4 0 7 8 19 18 24
21 13 17 12 37 5z m3890 -24 c3 -5 2 -10 -4 -10 -5 0 -13 5 -16 10 -3 6 -2 10
4 10 5 0 13 -4 16 -10z m-4574 -51 c-24 -21 -46 -37 -48 -35 -8 7 62 75 77 75
8 0 -4 -17 -29 -40z m3755 26 c-8 -8 -19 -15 -24 -15 -36 0 -35 -60 1 -75 28
-13 34 -52 10 -70 -29 -23 -43 -18 -43 15 0 17 -5 30 -12 30 -10 0 -9 3 1 9 8
5 11 16 6 30 -5 16 -15 21 -38 21 -24 0 -28 3 -17 10 8 5 24 10 36 10 12 0 30
11 40 25 10 14 27 25 37 25 16 0 17 -2 3 -15z m-606 -65 c0 -5 -18 -10 -40
-10 -22 0 -40 5 -40 10 0 6 18 10 40 10 22 0 40 -4 40 -10z m1034 4 c9 -3 16
-15 16 -25 0 -10 5 -19 11 -19 5 0 7 5 4 10 -3 6 -1 10 4 10 6 0 11 -4 11 -9
0 -5 9 -13 21 -16 19 -6 19 -8 3 -20 -16 -11 -16 -13 7 -26 13 -7 43 -14 67
-15 23 -1 50 -8 60 -17 27 -24 124 -26 146 -4 11 11 29 17 44 15 21 -2 29 -11
39 -47 9 -33 10 -47 2 -52 -7 -4 -8 -12 -4 -19 12 -19 -112 -8 -155 13 -34 18
-35 17 -52 -3 -14 -18 -26 -21 -70 -18 -46 3 -53 6 -56 26 -4 24 -22 28 -54
11 -13 -7 -18 -7 -14 -1 3 6 1 14 -5 18 -6 3 -15 1 -19 -6 -5 -8 -9 -7 -13 5
-5 11 -3 14 6 9 8 -5 9 -4 2 4 -5 6 -26 12 -45 13 -46 4 -53 8 -39 25 10 12 7
14 -12 12 -33 -4 -41 41 -10 49 30 8 26 23 -5 23 -26 0 -26 0 9 24 20 14 46
26 59 29 13 2 24 5 25 6 1 0 8 -2 17 -5z m-4269 -14 c3 -6 -1 -7 -9 -4 -18 7
-21 14 -7 14 6 0 13 -4 16 -10z m4025 -11 c0 -5 -7 -9 -15 -9 -15 0 -20 12 -9
23 8 8 24 -1 24 -14z m-4080 -79 c8 -5 11 -10 5 -10 -5 0 -17 5 -25 10 -8 5
-10 10 -5 10 6 0 17 -5 25 -10z m3420 -20 c0 -5 -5 -10 -11 -10 -5 0 -7 5 -4
10 3 6 8 10 11 10 2 0 4 -4 4 -10z m400 0 c0 -5 -4 -10 -10 -10 -5 0 -10 5
-10 10 0 6 5 10 10 10 6 0 10 -4 10 -10z m-265 -100 c-3 -5 -10 -10 -16 -10
-5 0 -9 5 -9 10 0 6 7 10 16 10 8 0 12 -4 9 -10z m-41 -26 c9 -3 16 -14 16
-24 0 -12 9 -20 23 -22 12 -2 22 -9 22 -16 0 -7 6 -16 13 -21 10 -6 8 -10 -10
-14 -33 -9 -50 -8 -44 2 12 19 -13 59 -44 70 -17 6 -29 15 -25 21 7 11 26 13
49 4z m1396 -43 c0 -32 -6 -24 -14 19 -4 25 -3 31 4 20 5 -8 10 -26 10 -39z
m-3327 12 c-7 -2 -19 -2 -25 0 -7 3 -2 5 12 5 14 0 19 -2 13 -5z m2032 -3 c3
-5 -1 -10 -10 -10 -9 0 -13 5 -10 10 3 6 8 10 10 10 2 0 7 -4 10 -10z m-1225
-110 c0 -5 -4 -10 -10 -10 -5 0 -10 5 -10 10 0 6 5 10 10 10 6 0 10 -4 10 -10z
m1856 -31 c3 -6 1 -16 -5 -22 -6 -6 -11 -15 -11 -19 0 -11 34 -10 46 2 18 18
69 0 89 -31 11 -16 27 -29 35 -30 10 0 8 -3 -5 -9 l-20 -9 20 -1 c19 -1 19 -2
-2 -10 -47 -19 -243 -62 -258 -57 -8 4 -15 17 -15 31 0 14 -7 31 -15 39 -8 8
-12 17 -10 19 3 3 -10 3 -28 2 -17 -2 -24 -1 -14 2 9 3 17 12 17 20 0 8 8 14
19 14 10 0 30 9 44 20 14 11 30 20 37 20 6 0 18 7 26 15 18 18 40 19 50 4z
m194 -109 c0 -5 -4 -10 -10 -10 -5 0 -10 5 -10 10 0 6 5 10 10 10 6 0 10 -4
10 -10z m-3213 -36 c-3 -3 -12 -4 -19 -1 -8 3 -5 6 6 6 11 1 17 -2 13 -5z
m2809 -34 c8 0 12 5 9 10 -3 6 1 10 11 10 14 0 14 -2 3 -16 -10 -13 -10 -17 2
-25 11 -7 9 -9 -7 -9 -12 0 -24 7 -28 15 -3 8 -12 15 -21 15 -13 0 -14 2 -3
14 11 12 13 12 16 0 2 -8 10 -14 18 -14z"/>
<path d="M2475 1703 c-188 -12 -325 -102 -325 -214 0 -179 332 -280 571 -173
70 32 135 97 144 146 7 37 -13 98 -43 131 -61 69 -215 118 -347 110z m78 -160
c75 -26 137 -51 137 -54 0 -4 -8 -9 -17 -12 -10 -3 -70 -23 -133 -46 -63 -23
-122 -41 -132 -41 -16 0 -18 11 -18 100 0 73 3 100 13 100 6 0 74 -21 150 -47z"/>
<path d="M755 1580 c3 -5 8 -10 11 -10 2 0 4 5 4 10 0 6 -5 10 -11 10 -5 0 -7
-4 -4 -10z"/>
<path d="M3510 1279 c0 -5 5 -7 10 -4 6 3 10 8 10 11 0 2 -4 4 -10 4 -5 0 -10
-5 -10 -11z"/>
<path d="M3470 1270 c0 -5 5 -10 10 -10 6 0 10 5 10 10 0 6 -4 10 -10 10 -5 0
-10 -4 -10 -10z"/>
<path d="M3596 1267 c3 -10 9 -15 12 -12 3 3 0 11 -7 18 -10 9 -11 8 -5 -6z"/>
<path d="M2626 781 c-4 -7 -5 -15 -2 -18 9 -9 19 4 14 18 -4 11 -6 11 -12 0z"/>
<path d="M2480 634 c0 -21 4 -25 23 -22 14 2 23 11 25 26 3 18 -1 22 -22 22
-21 0 -26 -5 -26 -26z"/>
<path d="M2310 562 c0 -5 7 -12 15 -16 11 -4 14 -13 9 -32 -5 -20 -3 -26 7
-22 16 5 25 68 10 68 -5 0 -16 3 -25 6 -9 3 -16 2 -16 -4z"/>
<path d="M2195 510 c4 -6 11 -8 16 -5 14 9 11 15 -7 15 -8 0 -12 -5 -9 -10z"/>
<path d="M2283 500 c-31 -13 -29 -20 7 -20 20 0 30 5 30 15 0 17 -5 18 -37 5z"/>
<path d="M2160 481 c0 -5 18 -8 40 -7 22 0 40 4 40 8 0 5 -18 8 -40 8 -22 0
-40 -4 -40 -9z"/>
<path d="M4370 696 c0 -2 7 -6 15 -10 8 -3 15 -1 15 4 0 6 -7 10 -15 10 -8 0
-15 -2 -15 -4z"/>
<path d="M4418 663 c7 -3 16 -2 19 1 4 3 -2 6 -13 5 -11 0 -14 -3 -6 -6z"/>
<path d="M4020 1770 c0 -5 7 -7 15 -4 8 4 15 8 15 10 0 2 -7 4 -15 4 -8 0 -15
-4 -15 -10z"/>
<path d="M4250 1723 c0 -10 5 -25 10 -33 7 -11 10 -7 10 18 0 17 -4 32 -10 32
-5 0 -10 -8 -10 -17z"/>
<path d="M4778 1723 c6 -2 18 -2 25 0 6 3 1 5 -13 5 -14 0 -19 -2 -12 -5z"/>
<path d="M4380 1684 c0 -14 4 -23 10 -19 6 3 10 15 10 26 0 10 -4 19 -10 19
-5 0 -10 -12 -10 -26z"/>
<path d="M4623 1693 c-7 -3 -13 -11 -13 -19 0 -16 -16 -19 -24 -5 -10 15 -75
23 -96 11 -25 -13 -26 -40 -2 -40 10 0 23 -5 29 -11 9 -9 18 -8 37 5 33 21 54
21 52 -1 -1 -14 6 -17 39 -15 64 5 175 51 175 73 0 8 -174 10 -197 2z"/>
<path d="M4180 1644 c0 -7 -9 -18 -20 -24 -29 -15 -25 -29 8 -27 21 2 27 8 26
25 -1 24 11 30 19 10 4 -8 6 -7 6 3 1 9 -8 19 -19 22 -13 3 -20 0 -20 -9z"/>
<path d="M1506 121 c-14 -5 -16 -10 -7 -15 15 -9 41 -1 41 14 0 11 -7 12 -34
1z"/>
<path d="M1778 33 c12 -2 32 -2 45 0 12 2 2 4 -23 4 -25 0 -35 -2 -22 -4z"/>
<path d="M1908 33 c17 -2 47 -2 65 0 17 2 3 4 -33 4 -36 0 -50 -2 -32 -4z"/>
<path d="M2093 23 c9 -2 23 -2 30 0 6 3 -1 5 -18 5 -16 0 -22 -2 -12 -5z"/>
<path d="M2168 23 c7 -3 16 -2 19 1 4 3 -2 6 -13 5 -11 0 -14 -3 -6 -6z"/>
<path d="M2415 20 c-3 -5 3 -10 15 -10 12 0 18 5 15 10 -3 6 -10 10 -15 10 -5
0 -12 -4 -15 -10z"/>
<path d="M2338 13 c12 -2 32 -2 45 0 12 2 2 4 -23 4 -25 0 -35 -2 -22 -4z"/>
</g>
</svg>
